<?xml version="1.0" encoding="utf-8"?>
<!-- Generator: Adobe Illustrator 15.0.0, SVG Export Plug-In . SVG Version: 6.00 Build 0)  -->
<!DOCTYPE svg PUBLIC "-//W3C//DTD SVG 1.1//EN" "http://www.w3.org/Graphics/SVG/1.1/DTD/svg11.dtd">
<svg version="1.1" id="Layer_1" xmlns="http://www.w3.org/2000/svg" xmlns:xlink="http://www.w3.org/1999/xlink" x="0px" y="0px"
	 width="30px" height="30px" viewBox="0 0 30 30" enable-background="new 0 0 30 30" xml:space="preserve">
<g>
	<path fill="#009973" d="M15,0C6.716,0-0.001,6.884-0.001,15.382c0,6.797,4.3,12.556,10.26,14.592
		c0.75,0.141,1.024-0.335,1.024-0.742c0-0.368-0.014-1.333-0.021-2.618c-4.172,0.93-5.056-2.064-5.056-2.064
		c-0.684-1.774-1.668-2.25-1.668-2.25c-1.359-0.958,0.101-0.938,0.101-0.938c1.506,0.108,2.297,1.588,2.297,1.588
		c1.34,2.353,3.509,1.675,4.366,1.279c0.133-0.991,0.522-1.675,0.951-2.057c-3.329-0.389-6.832-1.707-6.832-7.6
		c0-1.682,0.583-3.054,1.54-4.125C6.809,10.059,6.293,8.493,7.11,6.377c0,0,1.26-0.415,4.125,1.573
		c1.199-0.341,2.478-0.508,3.757-0.515c1.271,0.007,2.558,0.174,3.756,0.515c2.867-1.988,4.12-1.573,4.12-1.573
		c0.818,2.116,0.302,3.684,0.148,4.071c0.957,1.078,1.54,2.452,1.54,4.125c0,5.906-3.509,7.206-6.851,7.588
		c0.535,0.476,1.018,1.412,1.018,2.846c0,2.057-0.021,3.717-0.021,4.218c0,0.408,0.269,0.891,1.031,0.737
		C25.709,27.935,30,22.175,30,15.383C30.001,6.884,23.284,0,15,0z"/>
</g>
</svg>
