<?xml version="1.0" encoding="utf-8"?>
<!-- Generator: Adobe Illustrator 15.0.0, SVG Export Plug-In . SVG Version: 6.00 Build 0)  -->
<!DOCTYPE svg PUBLIC "-//W3C//DTD SVG 1.1//EN" "http://www.w3.org/Graphics/SVG/1.1/DTD/svg11.dtd">
<svg version="1.1" id="Calque_1" xmlns:serif="http://www.serif.com/"
	 xmlns="http://www.w3.org/2000/svg" xmlns:xlink="http://www.w3.org/1999/xlink" x="0px" y="0px" width="30px" height="30px"
	 viewBox="0 0 30 30" enable-background="new 0 0 30 30" xml:space="preserve">
<path fill="#009973" d="M27.732-0.079c1.224,0,2.221,0.969,2.221,2.164v25.679c0,1.194-0.997,2.164-2.221,2.164H2.159
	c-1.221,0-2.213-0.97-2.213-2.164V2.084c0-1.195,0.992-2.164,2.213-2.164L27.732-0.079L27.732-0.079z M25.516,25.49v-7.854
	c0-3.856-0.832-6.822-5.338-6.822c-2.166,0-3.617,1.188-4.211,2.313h-0.062V11.17h-4.265v14.32h4.445v-7.082
	c0-1.869,0.354-3.679,2.67-3.679c2.283,0,2.312,2.137,2.312,3.796v6.965H25.516z M8.847,11.17H4.392v14.32h4.455V11.17z
	 M6.621,4.052c-1.43,0-2.582,1.156-2.582,2.581c0,1.425,1.152,2.581,2.582,2.581c1.424,0,2.58-1.156,2.58-2.581
	C9.201,5.208,8.044,4.052,6.621,4.052z"/>
</svg>
